<?xml version="1.0" standalone="no"?>
<!DOCTYPE svg PUBLIC "-//W3C//DTD SVG 20010904//EN"
 "http://www.w3.org/TR/2001/REC-SVG-20010904/DTD/svg10.dtd">
<svg version="1.0" xmlns="http://www.w3.org/2000/svg"
 width="256.000000pt" height="256.000000pt" viewBox="0 0 256.000000 256.000000"
 preserveAspectRatio="xMidYMid meet">

<g transform="translate(0.000000,256.000000) scale(0.100000,-0.100000)"
fill="#000000" stroke="none">
<path d="M0 1280 c0 -1063 2 -1280 13 -1280 15 0 22 13 80 155 37 91 41 113
53 250 7 83 13 212 14 288 l0 138 113 122 c62 67 146 161 186 210 l75 87 165
2 c91 0 173 1 183 0 10 -1 20 11 27 30 29 82 137 184 223 210 34 10 37 14 40
52 l3 41 97 3 97 3 6 -35 c4 -19 4 -39 1 -44 -3 -6 6 -13 20 -16 75 -19 177
-112 222 -202 24 -47 44 -151 40 -207 l-3 -39 56 -17 56 -18 -19 74 c-24 93
-52 159 -121 276 -30 50 -64 111 -76 134 -21 42 -27 110 -13 146 7 16 11 14
38 -15 17 -18 53 -64 80 -103 27 -38 63 -89 81 -113 18 -24 36 -56 39 -70 9
-37 71 -160 100 -199 21 -27 28 -58 44 -185 11 -84 20 -184 20 -221 0 -123
-39 -427 -65 -507 -13 -41 -33 -110 -43 -152 l-20 -77 374 -1 374 0 0 1280 0
1280 -616 0 -617 0 54 -50 c38 -34 49 -50 36 -50 -10 0 -28 -7 -40 -15 -34
-22 -163 -23 -206 -1 -19 10 -43 15 -56 12 -25 -6 -183 38 -200 56 -7 8 -4 9
10 3 11 -4 46 -16 78 -27 l58 -20 64 42 c36 23 65 44 65 46 0 2 -125 4 -279 4
l-279 0 -12 -29 c-8 -19 -25 -35 -50 -45 -36 -14 -65 -56 -44 -63 104 -37 88
-102 -31 -124 -96 -18 -200 1 -254 47 -25 22 -27 34 -6 34 18 0 19 -5 -5 58
-26 67 -25 72 5 72 26 0 29 7 19 34 -5 13 -26 16 -130 16 l-124 0 0 -1280z
m2294 1059 c-9 -10 -20 -17 -24 -14 -4 2 -31 -4 -61 -15 -29 -11 -67 -19 -84
-19 -28 2 -28 2 -5 7 l25 5 -25 7 c-19 5 -7 9 45 14 76 8 125 23 125 38 0 5 5
6 11 3 7 -5 4 -13 -7 -26z m-274 -19 c13 -8 13 -10 -2 -10 -9 0 -20 5 -23 10
-8 13 5 13 25 0z m217 -175 c146 -43 80 -131 -97 -129 -120 1 -190 35 -175 84
17 53 163 77 272 45z m-697 -51 c196 -47 192 -45 188 -97 l-3 -42 -170 -44
c-231 -59 -308 -60 -523 -7 -212 51 -202 47 -202 100 0 52 -11 46 163 87 247
58 316 58 547 3z m-998 19 c33 -30 22 -40 -57 -47 -79 -7 -172 1 -181 15 -3 5
2 9 11 9 9 0 28 6 43 14 17 8 35 10 47 5 19 -7 19 -8 1 -8 -11 -1 -16 -4 -13
-8 9 -9 107 -14 131 -6 18 5 18 7 -5 24 -15 12 -19 19 -10 19 8 0 23 -7 33
-17z m-239 -11 c-10 -10 -20 -14 -22 -9 -2 5 3 13 10 18 24 15 30 10 12 -9z
m1664 -74 c-3 -8 -6 -5 -6 6 -1 11 2 17 5 13 3 -3 4 -12 1 -19z m-1617 0 c16
-10 24 -10 40 0 11 6 26 12 34 12 23 0 29 -19 9 -27 -28 -10 -33 -23 -33 -97
0 -66 -1 -68 -22 -62 -13 3 -29 6 -36 6 -7 0 -10 4 -7 10 3 5 -1 20 -9 32 -7
13 -17 49 -21 81 -7 62 2 71 45 45z m240 8 c0 -2 -7 -7 -16 -10 -8 -3 -12 -2
-9 4 6 10 25 14 25 6z m31 -89 c-10 -9 -11 -8 -5 6 3 10 9 15 12 12 3 -3 0
-11 -7 -18z m1432 -168 c34 -15 133 -17 179 -6 18 5 30 16 34 32 5 21 9 23 26
14 28 -15 19 -50 -17 -69 -16 -8 -32 -18 -35 -21 -3 -3 -46 -5 -95 -4 -109 1
-168 24 -173 66 -2 19 3 28 20 36 20 9 23 7 26 -12 2 -15 15 -28 35 -36z m192
-210 c93 -24 111 -88 35 -127 -40 -21 -56 -23 -145 -20 -78 3 -108 8 -135 24
-62 35 -50 92 25 119 48 17 160 19 220 4z m-161 -230 c-19 -21 -19 -22 4 -15
19 6 22 4 22 -18 0 -13 3 -31 6 -40 8 -21 -14 -21 -38 1 -22 20 -23 56 -2 77
23 24 30 19 8 -5z m101 1 c3 -5 0 -7 -8 -4 -8 3 -18 0 -23 -7 -4 -8 -3 -10 4
-5 7 4 12 2 12 -3 0 -6 -6 -11 -12 -12 -10 0 -10 -2 0 -6 6 -2 12 -9 12 -14 0
-6 -4 -7 -10 -4 -5 3 -10 2 -10 -4 0 -5 8 -15 18 -20 14 -9 14 -10 2 -11 -23
0 -40 21 -40 50 0 39 38 67 55 40z m109 -136 c9 -3 16 -17 16 -31 0 -17 -8
-27 -30 -37 -17 -7 -28 -15 -25 -17 4 -5 -161 -3 -222 3 -17 2 -29 6 -26 11 2
4 -6 7 -17 7 -16 0 -20 4 -16 16 3 8 2 12 -4 9 -15 -9 -12 5 5 21 13 14 15 13
15 -5 0 -34 35 -44 134 -38 108 6 146 19 146 47 0 22 1 23 24 14z m-111 -899
c14 -10 19 -28 20 -72 1 -37 10 -74 24 -102 24 -48 21 -69 -4 -36 -26 34 -43
83 -43 122 0 21 -7 47 -15 57 -16 21 -20 46 -7 46 4 0 15 -7 25 -15z m97 0 c0
-8 -6 -15 -14 -15 -20 0 -29 17 -14 23 22 9 28 7 28 -8z m-199 -18 c-10 -9
-11 -8 -5 6 3 10 9 15 12 12 3 -3 0 -11 -7 -18z m-14 -39 c-3 -8 -6 -5 -6 6
-1 11 2 17 5 13 3 -3 4 -12 1 -19z m0 -80 c-3 -8 -6 -5 -6 6 -1 11 2 17 5 13
3 -3 4 -12 1 -19z m61 -120 c8 -10 11 -18 5 -18 -10 0 -63 91 -63 106 1 5 10
-9 22 -31 11 -22 27 -48 36 -57z"/>
<path d="M1155 2100 c-22 -5 -51 -13 -65 -19 -19 -8 -14 -8 25 -3 28 4 112 7
187 7 91 0 131 3 120 9 -23 13 -217 17 -267 6z"/>
<path d="M1116 2065 c-75 -16 -109 -34 -127 -67 -10 -19 -8 -25 19 -49 44 -40
121 -60 243 -66 86 -4 120 -2 190 16 104 26 135 47 132 90 -1 27 1 30 13 20 8
-7 17 -9 21 -5 9 9 -3 18 -29 22 -13 2 -50 13 -83 25 -78 28 -277 35 -379 14z
m41 -21 c-3 -3 -12 -4 -19 -1 -8 3 -5 6 6 6 11 1 17 -2 13 -5z m-40 -10 c-3
-3 -12 -4 -19 -1 -8 3 -5 6 6 6 11 1 17 -2 13 -5z m-38 -7 c-2 -2 -17 -11 -34
-21 l-30 -17 24 20 c13 12 28 21 34 21 6 0 8 -1 6 -3z m178 -93 c-3 -3 -12 -4
-19 -1 -8 3 -5 6 6 6 11 1 17 -2 13 -5z m188 -7 c-12 -6 -66 -12 -130 -13
l-110 -2 113 8 c63 4 116 11 119 14 4 3 11 6 17 6 6 0 2 -6 -9 -13z"/>
<path d="M968 2029 c-19 -11 -24 -29 -8 -29 5 0 14 9 20 20 12 23 12 23 -12 9z"/>
<path d="M870 1999 c0 -5 5 -7 10 -4 6 3 10 8 10 11 0 2 -4 4 -10 4 -5 0 -10
-5 -10 -11z"/>
<path d="M950 1961 c0 -5 7 -12 16 -15 14 -5 15 -4 4 9 -14 17 -20 19 -20 6z"/>
<path d="M1585 1950 c-3 -5 -1 -10 4 -10 6 0 11 5 11 10 0 6 -2 10 -4 10 -3 0
-8 -4 -11 -10z"/>
<path d="M1143 1423 c-60 -21 -137 -94 -170 -161 -24 -49 -28 -69 -28 -142 0
-65 5 -96 21 -131 62 -133 199 -204 356 -185 79 10 88 18 60 55 -12 17 -25 45
-29 61 -5 29 -7 30 -27 17 -13 -9 -23 -29 -26 -51 -7 -48 -24 -47 -30 1 -4 28
-10 39 -25 41 -62 10 -117 36 -149 72 -81 90 -50 237 61 291 l45 22 21 -21 20
-21 -24 5 -24 6 25 -14 c15 -8 27 -26 31 -46 13 -65 19 -44 16 61 -1 67 2 106
8 104 6 -1 10 -44 9 -106 -1 -87 1 -101 12 -87 7 10 10 24 7 32 -8 21 15 44
46 45 23 2 24 2 4 6 -13 2 -23 9 -23 15 0 19 63 -1 93 -30 59 -56 77 -123 52
-196 -13 -39 -14 -53 -5 -77 7 -16 16 -27 20 -24 4 2 5 -6 3 -18 -5 -28 97
-214 144 -262 40 -41 76 -63 67 -41 -3 7 8 36 25 63 60 98 70 131 58 196 -6
31 -14 57 -18 57 -4 0 -13 -16 -19 -36 -12 -36 -13 -36 -54 -31 -22 4 -54 9
-71 12 -27 6 -32 2 -49 -29 -11 -20 -22 -36 -26 -36 -3 0 -14 16 -23 36 -17
35 -17 36 7 64 40 48 59 122 54 209 -7 122 -62 207 -170 261 -55 27 -70 30
-147 29 -49 0 -104 -7 -128 -16z m134 1 c-3 -3 -12 -4 -19 -1 -8 3 -5 6 6 6
11 1 17 -2 13 -5z m-197 -57 c0 -2 -15 -16 -32 -33 l-33 -29 29 33 c28 30 36
37 36 29z m10 -41 c0 -2 -8 -10 -17 -17 -16 -13 -17 -12 -4 4 13 16 21 21 21
13z m390 -28 c0 -5 -7 -3 -15 6 -8 8 -15 18 -15 22 0 3 7 1 15 -6 8 -7 15 -17
15 -22z m-13 -13 c8 -8 19 -13 24 -9 14 8 49 -79 55 -139 4 -38 3 -48 -5 -37
-6 8 -11 30 -11 49 0 29 -2 32 -15 21 -14 -11 -19 -7 -16 12 0 4 -19 29 -44
55 -43 47 -44 54 -7 62 2 1 10 -6 19 -14z m-426 -27 c-14 -27 -17 -54 -16
-143 1 -60 5 -119 9 -130 4 -11 -2 -3 -14 19 -42 74 -34 192 16 264 23 33 26
27 5 -10z m-63 -69 c-11 -31 -6 -128 7 -161 4 -10 3 -18 -3 -18 -13 0 -22 50
-22 119 0 64 9 103 21 96 4 -3 3 -19 -3 -36z m559 -141 c-3 -8 -6 -5 -6 6 -1
11 2 17 5 13 3 -3 4 -12 1 -19z m-476 -105 c13 -16 12 -17 -3 -4 -10 7 -18 15
-18 17 0 8 8 3 21 -13z m24 -54 c26 -40 183 -72 257 -51 21 6 40 6 43 2 7 -12
-57 -24 -125 -24 -77 1 -151 28 -202 74 -41 38 -41 39 -11 24 18 -8 35 -20 38
-25z"/>
<path d="M832 1001 c-27 -10 -45 -23 -47 -36 -12 -51 -22 -196 -18 -252 9
-102 -14 -274 -47 -365 -35 -96 -61 -142 -129 -227 -35 -43 -51 -73 -51 -92
l0 -29 435 0 435 0 -26 52 c-37 73 -50 113 -83 257 -20 86 -48 169 -88 261
-33 74 -63 143 -66 152 -3 10 -26 27 -50 38 -87 41 -165 129 -198 223 -7 20
-15 36 -19 36 -3 -1 -24 -9 -48 -18z"/>
<path d="M555 879 l-50 -18 46 -1 c35 0 49 4 53 16 4 9 5 18 4 19 -2 1 -25 -6
-53 -16z"/>
<path d="M1370 734 c-25 -7 -57 -13 -73 -13 l-27 -1 26 -52 c36 -71 75 -121
149 -193 l63 -60 12 28 c15 34 7 93 -24 185 -46 132 -43 130 -126 106z"/>
<path d="M1778 569 c7 -9 17 -30 22 -45 7 -24 8 -25 9 -7 1 12 -9 32 -21 45
-13 13 -17 16 -10 7z"/>
</g>
</svg>
